<?xml version="1.0" standalone="no"?>
<!DOCTYPE svg PUBLIC "-//W3C//DTD SVG 20010904//EN"
 "http://www.w3.org/TR/2001/REC-SVG-20010904/DTD/svg10.dtd">
<svg version="1.0" xmlns="http://www.w3.org/2000/svg"
 width="748.000000pt" height="748.000000pt" viewBox="0 0 748.000000 748.000000"
 preserveAspectRatio="xMidYMid meet">
<metadata>
Created by potrace 1.14, written by Peter Selinger 2001-2017
</metadata>
<g transform="translate(0.000000,748.000000) scale(0.100000,-0.100000)"
fill="#000000" stroke="none">
<path d="M3335 5373 c-118 -4 -331 -21 -490 -38 -554 -60 -1079 -178 -1520
-342 -68 -25 -88 -33 -205 -84 -200 -87 -454 -229 -575 -321 -74 -57 -176
-142 -199 -167 l-30 -31 182 0 182 0 0 -485 0 -485 315 0 315 0 0 -160 0 -160
-502 0 -502 0 35 -36 c122 -128 346 -282 579 -400 109 -54 258 -124 266 -124
3 0 24 -8 47 -19 162 -72 512 -180 762 -235 211 -47 268 -58 425 -85 450 -76
776 -101 1315 -100 443 0 678 14 1034 60 162 21 417 62 486 78 22 6 85 20 140
32 666 144 1248 392 1600 681 129 106 294 284 325 351 8 17 7 16 -7 -3 -36
-53 -134 -138 -189 -164 -97 -46 -166 -59 -314 -59 -222 1 -358 43 -466 145
-156 147 -214 316 -201 588 9 200 57 320 172 435 126 127 294 182 515 171 184
-9 300 -48 391 -133 72 -67 46 -24 -45 74 -165 177 -392 337 -681 478 -291
143 -549 236 -895 324 -388 98 -640 141 -1120 191 -243 25 -789 36 -1145 23z
m1195 -138 c0 -12 -22 -15 -112 -17 l-113 -3 109 -30 c101 -28 134 -48 108
-64 -5 -3 -61 -19 -124 -36 l-113 -30 123 -3 c99 -2 122 -5 122 -17 0 -13 -24
-15 -146 -15 l-145 0 3 27 c2 21 10 29 38 35 123 31 190 51 185 57 -4 3 -55
20 -113 36 -92 26 -107 34 -110 53 -3 22 -3 22 142 22 122 0 146 -2 146 -15z
m-60 -270 c40 -21 60 -53 60 -96 0 -129 -228 -162 -286 -41 -26 54 -4 104 61
140 29 16 131 14 165 -3z m-150 -259 c0 -7 -11 -21 -25 -30 -35 -23 -35 -77 1
-105 38 -30 140 -30 178 0 38 30 33 76 -11 104 -31 19 -44 45 -23 45 21 0 70
-30 80 -49 13 -26 13 -77 -1 -103 -15 -27 -85 -58 -134 -58 -62 0 -123 33
-140 74 -21 51 -19 64 19 102 36 36 56 43 56 20z m-1135 -200 c43 -18 105 -72
105 -92 0 -19 52 -24 249 -24 195 0 249 -8 327 -48 56 -28 129 -112 148 -169
20 -59 20 -156 0 -216 -21 -61 -82 -129 -141 -157 l-48 -23 44 -13 c230 -68
295 -364 120 -544 -98 -101 -215 -120 -739 -120 l-370 0 0 594 c0 527 -2 596
-16 610 -8 9 -22 16 -30 16 -20 0 -74 54 -74 73 0 22 47 75 81 93 89 45 259
55 344 20z m1345 -56 c0 -13 -7 -20 -20 -20 -13 0 -20 7 -20 20 0 13 7 20 20
20 13 0 20 -7 20 -20z m-2111 -448 c80 -213 187 -499 238 -637 51 -137 93
-253 93 -258 0 -4 -93 -6 -207 -5 l-207 3 -30 103 -30 102 -228 0 -227 0 -32
-105 -32 -105 -203 0 -203 0 29 78 c34 92 81 221 275 741 80 217 151 411 158
433 l12 38 225 0 225 -1 144 -387z m2057 373 c59 -24 77 -100 35 -149 -53 -63
-199 -61 -256 3 -31 35 -27 97 8 127 16 13 35 24 43 24 21 0 17 -28 -6 -35
-23 -7 -35 -44 -26 -81 14 -56 150 -72 203 -23 40 38 26 93 -29 112 -10 4 -18
13 -18 22 0 19 2 19 46 0z m1227 0 c122 -32 191 -85 239 -184 32 -64 33 -70
33 -196 0 -127 -1 -132 -33 -197 -56 -114 -152 -181 -296 -209 -27 -5 -120 -9
-207 -9 l-159 0 0 -240 0 -240 -195 0 -195 0 0 645 0 645 378 0 c303 0 389 -3
435 -15z m-1313 -255 c15 -15 20 -33 20 -70 l0 -50 60 0 c53 0 60 -2 60 -20 0
-19 -7 -20 -145 -20 l-145 0 0 70 c0 88 17 110 85 110 32 0 51 -6 65 -20z m48
-242 c-2 -24 -7 -43 -13 -43 -5 0 -11 19 -13 43 -3 33 0 42 13 42 13 0 16 -9
13 -42z m67 -93 c22 -21 25 -33 25 -90 l0 -65 -145 0 -145 0 0 65 c0 52 4 69
20 85 23 23 68 26 95 6 16 -12 21 -11 39 5 29 27 81 25 111 -6z m23 -202 c-2
-11 -19 -22 -43 -29 -39 -11 -40 -11 -43 -62 l-3 -51 45 -12 c33 -8 46 -16 46
-29 0 -17 -5 -17 -77 6 -43 13 -109 34 -146 45 -57 18 -68 25 -65 41 2 16 29
28 138 63 158 51 152 50 148 28z m2 -288 l0 -75 -146 0 c-133 0 -145 1 -142
18 3 15 18 17 126 20 l122 3 0 48 c0 50 5 61 27 61 10 0 13 -19 13 -75z m0
-140 c0 -8 -9 -15 -20 -15 -11 0 -20 7 -20 15 0 8 9 15 20 15 11 0 20 -7 20
-15z m-12 -115 c6 0 12 -9 12 -19 0 -16 -13 -23 -77 -36 -43 -10 -100 -22
-127 -29 l-50 -12 110 -23 c145 -30 144 -30 144 -50 0 -15 -22 -22 -132 -45
-154 -30 -158 -31 -158 -12 0 10 29 19 98 32 145 25 145 27 18 54 -103 22
-116 27 -116 46 0 18 12 23 94 42 52 12 103 22 112 22 45 0 -10 18 -103 35
-84 15 -103 22 -103 36 0 15 12 14 133 -12 72 -16 138 -29 145 -29z m-128
-288 c117 -25 135 -31 135 -48 0 -16 -17 -22 -112 -43 -62 -13 -113 -27 -113
-30 0 -4 52 -18 115 -31 94 -20 115 -27 115 -42 0 -10 -10 -20 -22 -23 -126
-28 -262 -54 -266 -51 -18 18 18 34 118 51 125 22 124 23 -23 56 -88 20 -98
24 -95 43 3 18 18 24 103 43 55 12 107 24 115 26 8 2 -16 9 -55 16 -137 24
-165 32 -165 47 0 18 -9 19 150 -14z m9 -317 c68 -14 125 -25 127 -25 8 0 4
-40 -3 -40 -17 -1 -225 -48 -229 -52 -2 -2 43 -14 99 -27 137 -30 137 -30 137
-50 0 -14 -25 -22 -137 -44 -160 -32 -153 -31 -153 -13 0 10 33 20 112 35 61
12 113 23 115 24 1 2 -48 15 -110 28 -96 22 -112 28 -115 46 -3 19 7 23 88 42
50 12 100 21 111 21 50 0 0 19 -96 36 -89 15 -105 21 -105 37 0 13 5 17 18 13
9 -3 73 -17 141 -31z"/>
<path d="M4314 4936 c-51 -23 -60 -81 -19 -121 20 -21 34 -25 80 -25 59 0 109
19 119 45 23 60 -17 107 -96 112 -32 2 -66 -2 -84 -11z"/>
<path d="M3280 3994 l0 -127 134 5 c159 5 192 18 216 86 13 37 13 47 0 85 -23
65 -56 77 -217 77 l-133 0 0 -126z"/>
<path d="M3280 3504 l0 -126 153 4 c209 6 257 30 257 126 0 100 -45 121 -257
122 l-153 0 0 -126z"/>
<path d="M2038 4028 c-3 -13 -33 -113 -67 -223 -33 -110 -61 -203 -61 -207 0
-5 61 -8 135 -8 108 0 135 3 135 14 0 15 -127 436 -133 443 -3 2 -7 -6 -9 -19z"/>
<path d="M5282 3983 l3 -138 90 2 c53 1 107 9 132 18 105 40 113 184 13 235
-32 16 -59 20 -140 20 l-101 0 3 -137z"/>
<path d="M4280 4091 c-5 -11 -10 -36 -10 -55 l0 -36 55 0 55 0 0 39 c0 23 -7
46 -16 55 -22 23 -71 20 -84 -3z"/>
<path d="M4418 3769 c-13 -7 -18 -23 -18 -59 l0 -50 45 0 45 0 0 50 c0 38 -4
52 -19 60 -24 12 -31 12 -53 -1z"/>
<path d="M4291 3761 c-7 -5 -16 -29 -18 -55 l-6 -46 47 0 46 0 0 43 c0 59 -29
83 -69 58z"/>
<path d="M4340 3512 c-61 -19 -59 -23 18 -45 l52 -16 0 40 c0 44 3 43 -70 21z"/>
<path d="M229 4295 c-281 -366 -288 -725 -20 -1082 l66 -88 3 308 c1 169 1
445 0 614 l-3 308 -46 -60z"/>
<path d="M6673 4090 c-56 -32 -92 -77 -119 -150 -25 -67 -25 -324 0 -400 38
-115 114 -170 237 -170 122 0 195 56 240 186 11 32 22 60 23 61 1 1 78 -22
171 -50 196 -61 189 -52 135 -172 -16 -36 -27 -65 -24 -65 10 0 64 129 86 207
33 118 31 297 -4 415 -27 88 -55 152 -42 96 5 -23 2 -28 -18 -33 -12 -3 -81
-18 -153 -35 -71 -16 -138 -32 -148 -34 -12 -3 -21 5 -31 28 -20 48 -76 107
-121 127 -26 12 -64 19 -110 19 -60 0 -78 -5 -122 -30z"/>
</g>
</svg>
